
   Smokin Aces 1 2006 and Smokin Aces 2 2010 Blu-ray Movie rip

----------------------------------------------------------------------------

Smokin Aces 1 2006

Storyline:
Mob boss Primo Sparazza has taken out a hefty contract on Buddy "Aces" Israel, a sleazy magician who has agreed to turn state's evidence against the Vegas mob. The FBI, sensing a chance to use this small-time con to bring down big-target Sparazza, places Aces into protective custody-under the supervision of two agents dispatched to Aces' Lake Tahoe hideout. When the word of the price on Aces' head spreads into the community of ex-cons and cons-to-be, it entices bounty hunters, thugs-for-hire, deadly vixens and double-crossing mobsters to join in the hunt. With all eyes on Tahoe, this rogues' gallery collides in a comic race to hit the jackpot and rub out Aces.

More Movie info:  http://www.imdb.com/title/tt0475394/

Genre                            : Action | Crime | Drama
Actors                           : Jeremy Piven, Ryan Reynolds and Ray Liotta
Source                           : Bluray
Container                        : Mp4
File size                        : 1.98 GiB
Duration                         : 1h 48mn
Overall bit rate                 : 2 609 Kbps
Encoded date                     : UTC 2011-03-05 19:31:49
Tagged date                      : UTC 2011-03-05 20:22:39
Writing application              : HandBrake 0.9.5 2011010300

Video
ID                               : 1
Format                           : AVC
Format/Info                      : Advanced Video Codec
Format profile                   : High@L3.1
Format settings, CABAC           : Yes
Format settings, ReFrames        : 6 frames
Codec ID                         : avc1
Codec ID/Info                    : Advanced Video Coding
Duration                         : 1h 48mn
Bit rate mode                    : Variable
Bit rate                         : 2 222 Kbps
Width                            : 1 280 pixels
Height                           : 544 pixels
Display aspect ratio             : 2.35:1
Frame rate mode                  : Variable
Frame rate                       : 23.976 fps
Minimum frame rate               : 23.968 fps
Maximum frame rate               : 23.981 fps
Color space                      : YUV
Chroma subsampling               : 4:2:0
Bit depth                        : 8 bits
Scan type                        : Progressive
Bits/(Pixel*Frame)               : 0.133
Stream size                      : 1.69 GiB (85%)
Writing library                  : x264 core 112
Encoding settings                : cabac=1 / ref=6 / deblock=1:0:0 / analyse=0x3:0x113 / me=hex / subme=7 / psy=1 / psy_rd=1.00:0.00 / mixed_ref=0 / me_range=16 / chroma_me=1 / trellis=1 / 8x8dct=1 / cqm=0 / deadzone=21,11 / fast_pskip=1 / chroma_qp_offset=-2 / threads=9 / sliced_threads=0 / nr=0 / decimate=1 / interlaced=0 / constrained_intra=0 / bframes=5 / b_pyramid=2 / b_adapt=2 / b_bias=0 / direct=1 / weightb=0 / open_gop=0 / weightp=2 / keyint=240 / keyint_min=23 / scenecut=40 / intra_refresh=0 / rc_lookahead=40 / rc=2pass / mbtree=1 / bitrate=2222 / ratetol=1.0 / qcomp=0.60 / qpmin=3 / qpmax=51 / qpstep=4 / cplxblur=20.0 / qblur=0.5 / ip_ratio=1.40 / aq=1:1.00
Encoded date                     : UTC 2011-03-05 19:31:49
Tagged date                      : UTC 2011-03-05 20:22:39
Color primaries                  : BT.709-5, BT.1361, IEC 61966-2-4, SMPTE RP177
Transfer characteristics         : BT.709-5, BT.1361
Matrix coefficients              : BT.709-5, BT.1361, IEC 61966-2-4 709, SMPTE RP177

Audio
ID                               : 2
Format                           : AC-3
Format/Info                      : Audio Coding 3
Mode extension                   : CM (complete main)
Codec ID                         : ac-3
Duration                         : 1h 48mn
Bit rate mode                    : Constant
Bit rate                         : 384 Kbps
Channel(s)                       : 6 channels
Channel positions                : Front: L C R, Side: L R, LFE
Sampling rate                    : 48.0 KHz
Bit depth                        : 16 bits
Compression mode                 : Lossy
Stream size                      : 299 MiB (15%)
Language                         : English

Subtitles: English (.srt file)

----------------------------------------------------------------

Smokin Aces 2 Assassins Ball 2010

Storyline:
Walter Weed is an unassuming desk jockey at the FBI when the Bureau uncovers a plot to assassinate him. A team of degenerate, psychotic assassins dispatched by mystery man Hal Leuco to win a huge bounty includes a resourceful beauty who has a unique method of killing her prey, a power-tool wielding psychopath and a deadly master of disguise.

More Movie info:  http://www.imdb.com/title/tt1319743/

Genre                            : Action | Crime | Thriller
Actors                           : Tom Berenger, Clayne Crawford and Tommy Flanagan
Source                           : Bluray
Container                        : Mp4
File size                        : 1.60 GiB
Duration                         : 1h 28mn
Overall bit rate                 : 2 607 Kbps
Encoded date                     : UTC 2011-03-05 17:28:30
Tagged date                      : UTC 2011-03-05 18:19:59
Writing application              : HandBrake 0.9.5 2011010300

Video
ID                               : 1
Format                           : AVC
Format/Info                      : Advanced Video Codec
Format profile                   : High@L4.0
Format settings, CABAC           : Yes
Format settings, ReFrames        : 6 frames
Codec ID                         : avc1
Codec ID/Info                    : Advanced Video Coding
Duration                         : 1h 28mn
Bit rate mode                    : Variable
Bit rate                         : 2 222 Kbps
Width                            : 1 280 pixels
Height                           : 720 pixels
Display aspect ratio             : 16:9
Frame rate mode                  : Variable
Frame rate                       : 23.976 fps
Minimum frame rate               : 23.968 fps
Maximum frame rate               : 23.981 fps
Color space                      : YUV
Chroma subsampling               : 4:2:0
Bit depth                        : 8 bits
Scan type                        : Progressive
Bits/(Pixel*Frame)               : 0.101
Stream size                      : 1.37 GiB (85%)
Writing library                  : x264 core 112
Encoding settings                : cabac=1 / ref=6 / deblock=1:0:0 / analyse=0x3:0x113 / me=hex / subme=7 / psy=1 / psy_rd=1.00:0.00 / mixed_ref=0 / me_range=16 / chroma_me=1 / trellis=1 / 8x8dct=1 / cqm=0 / deadzone=21,11 / fast_pskip=1 / chroma_qp_offset=-2 / threads=9 / sliced_threads=0 / nr=0 / decimate=1 / interlaced=0 / constrained_intra=0 / bframes=5 / b_pyramid=2 / b_adapt=2 / b_bias=0 / direct=1 / weightb=0 / open_gop=0 / weightp=2 / keyint=240 / keyint_min=23 / scenecut=40 / intra_refresh=0 / rc_lookahead=40 / rc=2pass / mbtree=1 / bitrate=2222 / ratetol=1.0 / qcomp=0.60 / qpmin=3 / qpmax=51 / qpstep=4 / cplxblur=20.0 / qblur=0.5 / ip_ratio=1.40 / aq=1:1.00
Encoded date                     : UTC 2011-03-05 17:28:30
Tagged date                      : UTC 2011-03-05 18:19:59
Color primaries                  : BT.709-5, BT.1361, IEC 61966-2-4, SMPTE RP177
Transfer characteristics         : BT.709-5, BT.1361
Matrix coefficients              : BT.709-5, BT.1361, IEC 61966-2-4 709, SMPTE RP177

Audio
ID                               : 2
Format                           : AC-3
Format/Info                      : Audio Coding 3
Mode extension                   : CM (complete main)
Codec ID                         : ac-3
Duration                         : 1h 28mn
Bit rate mode                    : Constant
Bit rate                         : 384 Kbps
Channel(s)                       : 6 channels
Channel positions                : Front: L C R, Side: L R, LFE
Sampling rate                    : 48.0 KHz
Bit depth                        : 16 bits
Compression mode                 : Lossy
Stream size                      : 242 MiB (15%)
Language                         : English

Subtitles: English (.srt file)

---------------------------------------------------------------

More Subtitles: 
http://www.sub-titles.net 
http://subscene.com/

Movie snapshots included in torrent.

My torrents:  
http://thepiratebay.org/user/PetaFOX
